# xmcd
#
# Track frame offsets:
#	150
#	14475
#	28050
#	42375
#	56325
#	71850
#	85050
#	100125
#	114450
#	129375
#	143625
#	155475
#	168975
#	183075
#	196275
#
# Disc length: 2818 seconds
#
# Revision: 0
# Processed by: cddbd v1.5.2PL0 Copyright (c) Steve Scherf et al.
# Submitted via: EasyCDDAExtractor 16.0.8.2
#
DISCID=c50b000f
DTITLE=Αγγελόπουλος Μανώλης - Αξέχαστες επιτυχίες-Αγγελόπουλος Μαν. 2
DYEAR=1995
DGENRE=Λαϊκή
TTITLE0=Σαν τα βουνά π' αντέχουνε[Γ.Πολίτης-Ε.Παπαγιαννοπούλου]
TTITLE1=Συμπάθα με αγάπη μου [Β. Τσιτσάνης]
TTITLE2=Οι νέοι μάγκες [Γ. Λαύκας]
TTITLE3=Μέσα σε μιά νύχτα [Γ. Μανισαλής-Κ. Βίρβος]
TTITLE4=Μαχαρανή [Β. Τσιτσάνης]
TTITLE5=Σκίζω το διαβατήριο [Μ.Αγγελόπουλος-Ν.Μουρκάκος]
TTITLE6=Πριν την αυγή [Β. Τσιτσάνης]
TTITLE7=Άντε στο καλό κυρά μου [Γ. Λαύκας]
TTITLE8=Μπεγλέρι και μαχαίρι [Δ. Ευσταθίου]
TTITLE9=Γλυκειά μου μάννα σήμερα [Χρ. Κολοκοτρώνης]
TTITLE10=Χαλάλι σου, χαλάλι σου [Γ. Μητσάκης]
TTITLE11=Πες μου τι να σού χαρίσω [Χ. Κολοκοτρώνης]
TTITLE12=Τοπάζια [Β. Τσιτσάνης]
TTITLE13=Γονιού ευχή [Β. Καραπατάκης-Ν. Δαλέζιος]
TTITLE14=Έφυγε κι ακόμα πάει [Π. Πετσάς]
EXTD=
EXTT0=
EXTT1=
EXTT2=
EXTT3=
EXTT4=
EXTT5=
EXTT6=
EXTT7=
EXTT8=
EXTT9=
EXTT10=
EXTT11=
EXTT12=
EXTT13=
EXTT14=
PLAYORDER=
